<?xml version="1.0" encoding="UTF-8"?>
<!-- Generator: visioncortex VTracer 0.6.1 -->
<svg version="1.1" xmlns="http://www.w3.org/2000/svg" width="30" height="30">
<path d="M0 0 C1.13248135 -0.00350607 2.26496269 -0.00701215 3.43176165 -0.01062447 C7.22422464 -0.01992372 11.01653357 -0.01501883 14.80900288 -0.01015663 C17.55661223 -0.01279081 20.3042137 -0.01841582 23.05181867 -0.02388728 C29.02477208 -0.03417592 34.99769309 -0.03703304 40.97065449 -0.03497505 C49.85340528 -0.031922 58.73612027 -0.04025597 67.61886409 -0.0507243 C84.41032383 -0.07006024 101.20177135 -0.07569244 117.99324092 -0.07683842 C130.96620649 -0.07775799 143.93916729 -0.08187722 156.91213131 -0.08823967 C160.64836941 -0.09003482 164.38460751 -0.09181445 168.12084562 -0.09358943 C169.04974194 -0.09403152 169.97863826 -0.09447362 170.93568296 -0.09492911 C197.06383894 -0.10723732 223.19199327 -0.11513029 249.32015228 -0.11424255 C250.79766799 -0.11419582 250.79766799 -0.11419582 252.30503249 -0.11414814 C257.29727601 -0.11398193 262.28951952 -0.11378385 267.28176304 -0.11357872 C268.2732058 -0.11353883 269.26464856 -0.11349894 270.28613504 -0.11345784 C272.29107667 -0.11337697 274.2960183 -0.11329337 276.30095992 -0.11320706 C307.47238619 -0.11198242 338.64376889 -0.12697876 369.81518269 -0.15435219 C404.85346596 -0.1851088 439.89172062 -0.20228242 474.93001825 -0.20042574 C478.67034296 -0.20027649 482.41066768 -0.20017907 486.15099239 -0.20011711 C487.07192118 -0.2000938 487.99284997 -0.20007049 488.94168569 -0.20004648 C503.73025526 -0.19998506 518.51878688 -0.2127303 533.30734519 -0.22998164 C548.18737546 -0.24697985 563.06735052 -0.2488794 577.94738515 -0.235763 C586.7742575 -0.22840079 595.60096156 -0.23194951 604.42781589 -0.25164768 C610.34056396 -0.26372134 616.25319123 -0.26097541 622.16593395 -0.24670668 C625.52415058 -0.23900495 628.88178248 -0.23947695 632.24001589 -0.25362138 C649.5839317 -0.32178383 666.62854128 0.45716806 683.3776986 5.38814986 C686.28747828 6.37525202 686.28747828 6.37525202 688.96386433 6.25726891 C692.11410082 6.25726891 694.41070947 7.22413359 697.40136433 8.25726891 C699.33567875 8.74913743 701.27359606 9.22693773 703.21386433 9.69476891 C707.62860185 10.77803989 711.91131392 12.02060862 716.20214558 13.51508141 C718.52165349 14.29786383 720.85849966 14.96572692 723.21386433 15.63226891 C728.05810048 17.06759814 732.63588548 18.95599226 737.27636433 20.94476891 C740.39654125 22.25524321 743.54281271 23.45089673 746.71386433 24.63226891 C759.31281324 29.46186599 771.02565608 35.55210293 782.69482136 42.28070641 C784.85022212 43.51412601 787.03053157 44.69914385 789.21386433 45.88226891 C796.95199678 50.17140518 804.30004577 55.13992145 811.62402058 60.09320641 C813.39640845 61.30309712 813.39640845 61.30309712 815.40136433 62.25726891 C815.40136433 62.91726891 815.40136433 63.57726891 815.40136433 64.25726891 C816.08585651 64.48027672 816.7703487 64.70328453 817.47558308 64.93305016 C821.18946696 66.61396689 824.05768768 68.89347621 827.21386433 71.44476891 C828.14416462 72.18678551 828.14416462 72.18678551 829.09325886 72.94379234 C832.9735848 76.05576706 836.79503082 79.22353318 840.49242878 82.55219078 C841.68423507 83.61672271 842.88566827 84.67068722 844.10107136 85.70819664 C849.79205267 90.57158048 855.11486117 95.78459017 860.40429401 101.07489586 C861.92138457 102.58975977 863.4463617 104.09639482 864.97167683 105.60297203 C865.93830926 106.56667691 866.90447329 107.53085189 867.87011433 108.49555016 C868.74087605 109.36220299 869.61163776 110.22885582 870.5087862 111.12177086 C872.40136433 113.25726891 872.40136433 113.25726891 872.40136433 115.25726891 C872.97886433 115.46351891 873.55636433 115.66976891 874.15136433 115.88226891 C877.2125322 117.75298261 878.41690783 120.27878989 880.40136433 123.25726891 C881.97283395 125.03668845 883.5782353 126.78663868 885.21386433 128.50726891 C889.80270041 133.48521682 893.64928095 138.63737209 897.40136433 144.25726891 C898.52835725 145.88228158 899.65548219 147.50720775 900.78661823 149.12933922 C902.66850091 151.83156975 904.53392637 154.54503759 906.40136433 157.25726891 C906.96081745 158.06293297 907.52027058 158.86859703 908.09667683 159.69867516 C911.35684733 164.46944822 914.19719435 169.38162709 916.90917683 174.48383141 C918.33653613 177.13677671 919.82657874 179.74822821 921.32616901 182.36078453 C923.26193668 185.77519035 925.1157782 189.23233437 926.96386433 192.69476891 C927.34993855 193.40697594 927.73601276 194.11918297 928.1337862 194.85297203 C930.30949296 198.93381214 932.14492334 202.98794528 933.7016573 207.3419857 C934.80678623 210.36701588 936.12857246 213.29960634 937.40136433 216.25726891 C940.79486076 224.75117016 943.86201971 233.33454058 946.46386433 242.10492516 C947.10652072 244.26585727 947.77455008 246.41935836 948.46386433 248.56586266 C950.40465861 254.62370951 951.96865518 260.52403214 952.90917683 266.81976891 C953.31201861 269.26625588 953.31201861 269.26625588 954.36230183 271.42914391 C955.92346838 275.67833408 956.33010907 280.03138981 956.90136433 284.50726891 C957.67894136 290.49717549 958.60034586 296.34688775 959.97314167 302.22992516 C960.56265602 305.02087565 960.78843691 307.7881053 960.96386433 310.63226891 C961.16481873 313.80652822 961.39173957 316.22839464 962.40136433 319.25726891 C962.49200104 320.75032614 962.52658679 322.24712941 962.52671349 323.74293518 C962.53046877 325.13227575 962.53046877 325.13227575 962.53429991 326.54968381 C962.53195874 327.570935 962.52961758 328.59218619 962.52720547 329.64438438 C962.52865891 330.73088303 962.53011235 331.81738168 962.53160983 332.93680453 C962.53528889 336.61476602 962.53177461 340.29268656 962.52834797 343.97064781 C962.52949904 346.61922197 962.53104523 349.26779322 962.53307521 351.91636658 C962.53669562 357.69408904 962.536572 363.47180217 962.53402805 369.24952507 C962.53025543 377.84100912 962.53217417 386.43248525 962.53523636 395.02396923 C962.54051067 410.36572898 962.54004231 425.70748456 962.53715745 441.0492447 C962.5346452 454.47480807 962.53398364 467.90036991 962.53518009 481.32593346 C962.53525648 482.2153265 962.53533286 483.10471954 962.53541156 484.02106388 C962.53572288 487.63109639 962.53604128 491.24112889 962.53637133 494.8511614 C962.53943263 528.73916616 962.53665322 562.62716828 962.53127443 596.51517263 C962.52652857 626.64470093 962.52695319 656.77422501 962.53173542 686.90375328 C962.53708617 720.72845525 962.53921555 754.55315487 962.53612316 788.37785721 C962.53580242 791.98143959 962.53548958 795.58502197 962.53518009 799.18860435 C962.53510101 800.07594519 962.53502194 800.96328603 962.53494046 801.87751599 C962.53380139 815.29700865 962.53513625 828.71649962 962.53765965 842.13599205 C962.54051354 857.38943328 962.53981556 872.6428697 962.5343789 887.89631033 C962.53143424 896.44068343 962.53126297 904.98504611 962.53502508 913.52941895 C962.53725839 919.22858163 962.5358884 924.9277359 962.53152031 930.62689733 C962.52912938 933.87949258 962.52889595 937.13206274 962.53192629 940.3846581 C962.5349347 943.87984364 962.53188107 947.37497101 962.52720547 950.87015343 C962.52954663 951.89140462 962.5318878 952.91265581 962.53429991 953.964854 C962.53179639 954.89108105 962.52929287 955.8173081 962.52671349 956.77160263 C962.52661185 957.97156862 962.52661185 957.97156862 962.52650816 959.19577634 C962.40136433 961.25726891 962.40136433 961.25726891 961.40136433 964.25726891 C961.21365744 965.63079292 961.06220977 967.00950025 960.93652058 968.39008141 C960.8585323 969.19703453 960.78054401 970.00398766 960.70019245 970.83539391 C960.54482987 972.50971466 960.39113479 974.18419113 960.23925495 975.85883141 C959.76930488 980.688237 959.01836189 985.3080432 957.90307331 990.02924156 C956.88792719 994.53737953 956.25117794 999.11809066 955.54589558 1003.68305016 C954.80180101 1008.33164093 953.74801041 1012.73676284 952.40136433 1017.25726891 C951.66508614 1020.42596353 950.97050041 1023.60170499 950.28027058 1026.78070641 C949.20728874 1031.02494566 947.81410138 1035.11653271 946.40136433 1039.25726891 C945.91064766 1040.75647394 945.42234233 1042.25647052 944.93652058 1043.75726891 C942.43039895 1051.43840164 939.89951986 1058.96021143 936.40136433 1066.25726891 C935.90636433 1067.41226891 935.41136433 1068.56726891 934.90136433 1069.75726891 C922.99444309 1097.54008513 922.99444309 1097.54008513 916.40136433 1107.25726891 C915.27254108 1109.02566755 914.14788131 1110.79672764 913.02636433 1112.56976891 C912.42952839 1113.50433922 911.83269245 1114.43890953 911.21777058 1115.40180016 C910.02997632 1117.26906381 908.84994329 1119.1412931 907.67870808 1121.01898766 C903.52733968 1127.6479381 899.09247319 1133.99934833 894.40136433 1140.25726891 C893.82515339 1141.02941734 893.24894245 1141.80156578 892.65527058 1142.59711266 C888.8266675 1147.6282331 884.6894391 1152.29112362 880.41698933 1156.94867516 C878.73934844 1158.87015919 877.32017202 1160.73140782 875.96386433 1162.88226891 C875.44823933 1163.66601891 874.93261433 1164.44976891 874.40136433 1165.25726891 C873.74136433 1165.25726891 873.08136433 1165.25726891 872.40136433 1165.25726891 C871.99917683 1166.21633141 871.99917683 1166.21633141 871.58886433 1167.19476891 C870.40136433 1169.25726891 870.40136433 1169.25726891 867.40136433 1170.25726891 C867.07136433 1170.91726891 866.74136433 1171.57726891 866.40136433 1172.25726891 C866.07136433 1172.91726891 865.74136433 1173.57726891 865.40136433 1174.25726891 C864.41136433 1174.58726891 863.42136433 1174.91726891 862.40136433 1175.25726891 C862.07136433 1175.91726891 861.74136433 1176.57726891 861.40136433 1177.25726891 C861.07136433 1177.91726891 860.74136433 1178.57726891 860.40136433 1179.25726891 C859.41136433 1179.58726891 858.42136433 1179.91726891 857.40136433 1180.25726891 C857.07136433 1180.91726891 856.74136433 1181.57726891 856.40136433 1182.25726891 C856.07136433 1182.91726891 855.74136433 1183.57726891 855.40136433 1184.25726891 C854.41136433 1184.58726891 853.42136433 1184.91726891 852.40136433 1185.25726891 C852.07136433 1185.91726891 851.74136433 1186.57726891 851.40136433 1187.25726891 C851.07136433 1187.91726891 850.74136433 1188.57726891 850.40136433 1189.25726891 C849.41136433 1189.58726891 848.42136433 1189.91726891 847.40136433 1190.25726891 C846.99917683 1191.15445641 846.99917683 1191.15445641 846.58886433 1192.06976891 C844.89999274 1195.18084814 842.33562316 1196.30579304 839.40136433 1198.25726891 C837.62194478 1199.82873853 835.87199455 1201.43413988 834.15136433 1203.06976891 C829.17341641 1207.65860499 824.02126114 1211.50518553 818.40136433 1215.25726891 C816.77635165 1216.38426182 815.15142548 1217.51138677 813.52929401 1218.64252281 C810.82706348 1220.52440549 808.11359564 1222.38983095 805.40136433 1224.25726891 C804.59570026 1224.81672203 803.7900362 1225.37617516 802.95995808 1225.95258141 C798.18918501 1229.21275191 793.27700615 1232.05309893 788.17480183 1234.76508141 C785.52185652 1236.19244071 782.91040502 1237.68248332 780.2978487 1239.18207359 C776.88344288 1241.11784126 773.42629887 1242.97168278 769.96386433 1244.81976891 C769.2516573 1245.20584312 768.53945026 1245.59191734 767.8056612 1245.98969078 C763.72482109 1248.16539754 759.67068795 1250.00082792 755.31664753 1251.55756187 C752.29161735 1252.66269081 749.3590269 1253.98447704 746.40136433 1255.25726891 C737.90746307 1258.65076534 729.32409265 1261.71792428 720.55370808 1264.31976891 C718.39277597 1264.9624253 716.23927487 1265.63045466 714.09277058 1266.31976891 C708.03492373 1268.26056318 702.13460109 1269.82455976 695.83886433 1270.76508141 C693.39237735 1271.16792319 693.39237735 1271.16792319 691.22948933 1272.21820641 C686.98029915 1273.77937296 682.62724342 1274.18601365 678.15136433 1274.75726891 C672.16145774 1275.53484594 666.31174548 1276.45625044 660.42870808 1277.82904625 C657.63775759 1278.4185606 654.87052793 1278.64434149 652.02636433 1278.81976891 C648.85210501 1279.02072331 646.43023859 1279.24764415 643.40136433 1280.25726891 C641.90830709 1280.34790562 640.41150382 1280.38249137 638.91569805 1280.38261807 C637.52635748 1280.38637335 637.52635748 1280.38637335 636.10894942 1280.39020449 C635.08769823 1280.38786332 634.06644704 1280.38552216 633.01424885 1280.38311005 C631.9277502 1280.38456349 630.84125155 1280.38601693 629.7218287 1280.38751441 C626.04386721 1280.39119346 622.36594667 1280.38767919 618.68798542 1280.38425255 C616.03941126 1280.38540361 613.39084001 1280.38694981 610.74226665 1280.38897979 C604.96454419 1280.3926002 599.18683106 1280.39247657 593.40910816 1280.38993263 C584.81762412 1280.38616001 576.22614799 1280.38807875 567.634664 1280.39114094 C552.29290426 1280.39641525 536.95114867 1280.39594689 521.60938853 1280.39306203 C508.18382517 1280.39054978 494.75826333 1280.38988822 481.33269978 1280.39108467 C480.44330674 1280.39116106 479.5539137 1280.39123744 478.63756935 1280.39131614 C475.02753685 1280.39162746 471.41750434 1280.39194586 467.80747183 1280.3922759 C433.91946707 1280.39533721 400.03146496 1280.3925578 366.1434606 1280.38717901 C336.0139323 1280.38243315 305.88440822 1280.38285777 275.75487995 1280.38764 C241.93017798 1280.39299075 208.10547836 1280.39512013 174.28077602 1280.39202774 C170.67719364 1280.391707 167.07361126 1280.39139416 163.47002888 1280.39108467 C162.58268804 1280.39100559 161.6953472 1280.39092652 160.78111725 1280.39084504 C147.36162458 1280.38970597 133.94213361 1280.39104083 120.52264118 1280.39356422 C105.26919995 1280.39641812 90.01576353 1280.39572014 74.7623229 1280.39028348 C66.2179498 1280.38733882 57.67358712 1280.38716755 49.12921428 1280.39092965 C43.4300516 1280.39316297 37.73089733 1280.39179298 32.0317359 1280.38742489 C28.77914065 1280.38503396 25.52657049 1280.38480053 22.27397513 1280.38783087 C18.77878959 1280.39083928 15.28366222 1280.38778565 11.7884798 1280.38311005 C10.25660302 1280.3866218 10.25660302 1280.3866218 8.69377923 1280.39020449 C7.76755218 1280.38770097 6.84132514 1280.38519745 5.8870306 1280.38261807 C5.08705328 1280.38255031 4.28707595 1280.38248255 3.46285689 1280.38241274 C1.40136433 1280.25726891 1.40136433 1280.25726891 -1.59863567 1279.25726891 C-2.97215969 1279.06956202 -4.35086702 1278.91811435 -5.73144817 1278.79242516 C-6.5384013 1278.71443687 -7.34535442 1278.63644859 -8.17676067 1278.55609703 C-9.85108143 1278.40073445 -11.5255579 1278.24703937 -13.20019817 1278.09515953 C-18.02960377 1277.62520946 -22.64940997 1276.87426646 -27.37060833 1275.75897789 C-31.8787463 1274.74383177 -36.45945743 1274.10708252 -41.02441692 1273.40180016 C-45.6730077 1272.65770559 -50.0781296 1271.60391499 -54.59863567 1270.25726891 C-57.7673303 1269.52099071 -60.94307176 1268.82640499 -64.12207317 1268.13617516 C-68.36631243 1267.06319332 -72.45789948 1265.67000596 -76.59863567 1264.25726891 C-78.09784071 1263.76655224 -79.59783728 1263.27824691 -81.09863567 1262.79242516 C-88.77976841 1260.28630353 -96.30157819 1257.75542444 -103.59863567 1254.25726891 C-104.75363567 1253.76226891 -105.90863567 1253.26726891 -107.09863567 1252.75726891 C-134.8814519 1240.85034766 -134.8814519 1240.85034766 -144.59863567 1234.25726891 C-146.36703432 1233.12844566 -148.1380944 1232.00378589 -149.91113567 1230.88226891 C-150.84570599 1230.28543297 -151.7802763 1229.68859703 -152.74316692 1229.07367516 C-154.61043058 1227.8858809 -156.48265987 1226.70584787 -158.36035442 1225.53461266 C-164.98930487 1221.38324426 -171.3407151 1216.94837777 -177.59863567 1212.25726891 C-178.75685833 1211.3929525 -178.75685833 1211.3929525 -179.93847942 1210.51117516 C-184.96959987 1206.68257207 -189.63249039 1202.54534368 -194.29004192 1198.27289391 C-196.21152596 1196.59525302 -198.07277459 1195.1760766 -200.22363567 1193.81976891 C-201.39926067 1193.04633141 -201.39926067 1193.04633141 -202.59863567 1192.25726891 C-202.59863567 1191.59726891 -202.59863567 1190.93726891 -202.59863567 1190.25726891 C-203.43443157 1189.90825523 -203.43443157 1189.90825523 -204.28711224 1189.55219078 C-207.19787212 1187.92157498 -209.220447 1185.89487697 -211.58301067 1183.53851891 C-212.51758099 1182.60652672 -213.4521513 1181.67453453 -214.41504192 1180.71430016 C-215.13651409 1179.98654381 -215.13651409 1179.98654381 -215.87256145 1179.24408531 C-217.35068415 1177.75520552 -218.83923479 1176.2773524 -220.32910442 1174.80023766 C-221.25851849 1173.86824547 -222.18793255 1172.93625328 -223.14551067 1171.97601891 C-223.99983685 1171.11943687 -224.85416302 1170.26285484 -225.73437786 1169.38031578 C-227.59863567 1167.25726891 -227.59863567 1167.25726891 -227.59863567 1165.25726891 C-228.55769817 1164.85508141 -228.55769817 1164.85508141 -229.53613567 1164.44476891 C-231.59863567 1163.25726891 -231.59863567 1163.25726891 -232.59863567 1160.25726891 C-233.25863567 1160.25726891 -233.91863567 1160.25726891 -234.59863567 1160.25726891 C-235.62514751 1158.6067989 -236.62076614 1156.9370156 -237.59863567 1155.25726891 C-238.79386859 1153.85267147 -240.0249071 1152.47792049 -241.28613567 1151.13226891 C-253.59863567 1137.54054813 -253.59863567 1137.54054813 -253.59863567 1133.25726891 C-254.25863567 1133.25726891 -254.91863567 1133.25726891 -255.59863567 1133.25726891 C-257.35394116 1130.62431068 -258.98359072 1127.97606317 -260.59863567 1125.25726891 C-265.62631003 1116.78661378 -265.62631003 1116.78661378 -271.22363567 1108.69476891 C-273.95567312 1104.97666497 -275.8558644 1100.90091753 -277.86035442 1096.75726891 C-279.13066596 1094.19951804 -280.43338218 1091.69644576 -281.80566692 1089.19476891 C-286.06815856 1081.40985096 -289.6791659 1073.90215224 -292.48535442 1065.46430016 C-293.55067851 1062.39541918 -294.78451578 1059.51016246 -296.16113567 1056.56976891 C-300.02211578 1048.29105294 -302.77120527 1039.98659532 -304.87988567 1031.10492516 C-305.71216461 1027.80747219 -306.78703522 1024.64114561 -307.90722942 1021.43305016 C-308.89125928 1018.33641382 -309.53859302 1015.19222127 -310.16894817 1012.00726891 C-310.44247422 1010.24073106 -310.44247422 1010.24073106 -311.59863567 1009.25726891 C-311.57801067 1008.55601891 -311.55738567 1007.85476891 -311.53613567 1007.13226891 C-311.59727696 1004.31976965 -312.20317102 1002.13151733 -313.02832317 999.46430016 C-314.01594226 995.6423496 -314.48735788 991.73662964 -315.03613567 987.83148766 C-315.3366348 985.92206611 -315.65412134 984.01278791 -316.0819245 982.12780122 C-317.56111812 975.58198712 -317.8833936 969.37291387 -317.85869789 962.67818642 C-317.86250356 961.54780225 -317.86630923 960.41741808 -317.87023023 959.25277984 C-317.88053137 955.46738455 -317.87664244 951.68213963 -317.87279034 947.89673424 C-317.87614356 945.15411324 -317.88247955 942.41150088 -317.88865906 939.66888499 C-317.90048521 933.7066457 -317.90487265 927.74443698 -317.90433788 921.78218651 C-317.90354348 912.91498845 -317.91410693 904.04782889 -317.92675345 895.18064113 C-317.95147845 877.49313409 -317.96027524 859.80563645 -317.96528994 842.1181145 C-317.96555112 841.20220884 -317.96581229 840.28630317 -317.96608138 839.34264278 C-317.96634166 838.42483402 -317.96660193 837.50702525 -317.96687009 836.56140409 C-317.96995504 826.38062513 -317.97646098 816.19984875 -317.98308277 806.01907158 C-318.00273315 775.24643773 -318.01913465 744.47380668 -318.0219593 713.70116615 C-318.02205337 712.71703221 -318.02214743 711.73289828 -318.02224434 710.7189421 C-318.02262281 706.73089847 -318.0229868 702.74285485 -318.02334732 698.75481122 C-318.02361903 695.7533518 -318.02389571 692.75189238 -318.02417278 689.75043297 C-318.02426081 688.75862968 -318.02434883 687.7668264 -318.02443952 686.74496847 C-318.0273414 655.62045989 -318.04940449 624.49601356 -318.08569622 593.37152672 C-318.12650002 558.37675685 -318.15011847 523.38202939 -318.15041882 488.38723445 C-318.15051563 484.64875014 -318.15068234 480.91026584 -318.15089893 477.17178154 C-318.15094305 476.25132471 -318.15098716 475.33086789 -318.15103261 474.38251843 C-318.15214872 459.62135542 -318.16950344 444.86025514 -318.19271825 430.09911228 C-318.21566002 415.23463652 -318.21972256 400.37024472 -318.20516896 385.50575772 C-318.1970697 376.69587227 -318.20252084 367.88625285 -318.2283498 359.07640014 C-318.24426601 353.16604414 -318.24146073 347.25587405 -318.22444307 341.34552197 C-318.21529386 337.99431702 -318.21616218 334.64402498 -318.23440915 331.29279962 C-318.35831462 306.93903973 -314.99026728 283.76294216 -308.59863567 260.25726891 C-308.23314098 258.59304974 -307.87728209 256.92664931 -307.53613567 255.25726891 C-306.79116675 251.80035169 -305.67775692 248.62288816 -304.37597942 245.33930016 C-303.53504424 243.08694613 -302.87674206 240.82081527 -302.22363567 238.50726891 C-300.79575737 233.63612156 -298.90919879 229.04441618 -296.91113567 224.38226891 C-295.60066136 221.26209198 -294.40500785 218.11582053 -293.22363567 214.94476891 C-288.80460651 203.39472071 -283.28094248 192.46067468 -277.39941692 181.60101891 C-275.38284099 177.85657422 -273.46914652 174.07622854 -271.59863567 170.25726891 C-270.93863567 170.25726891 -270.27863567 170.25726891 -269.59863567 170.25726891 C-269.3434013 169.38328453 -269.08816692 168.50930016 -268.82519817 167.60883141 C-267.56876387 164.17564467 -266.0480982 161.63238801 -263.97363567 158.63226891 C-260.62030998 153.75445099 -260.62030998 153.75445099 -257.36426067 148.81195641 C-256.65785442 147.72140953 -255.95144817 146.63086266 -255.22363567 145.50726891 C-254.5765263 144.50180016 -253.92941692 143.49633141 -253.26269817 142.46039391 C-252.71355755 141.73336266 -252.16441692 141.00633141 -251.59863567 140.25726891 C-250.93863567 140.25726891 -250.27863567 140.25726891 -249.59863567 140.25726891 C-249.37820599 139.56375328 -249.1577763 138.87023766 -248.93066692 138.15570641 C-247.27024352 134.54270299 -244.89823994 131.82751236 -242.28613567 128.88226891 C-237.86139901 123.81775045 -237.86139901 123.81775045 -233.91113567 118.38226891 C-231.44758955 115.05315252 -228.7948212 112.71643544 -225.63769817 110.07367516 C-223.5932859 108.25250331 -221.86313011 106.34807396 -220.09863567 104.25726891 C-217.18188312 100.81019771 -214.0205235 97.9568152 -210.57519817 95.05023766 C-208.51366335 93.18018927 -206.7618486 91.200657 -204.97363567 89.06976891 C-202.14132849 85.73464764 -199.2881271 83.64458689 -195.59863567 81.25726891 C-193.91440349 79.77701902 -192.24938222 78.27477133 -190.59863567 76.75726891 C-181.30044786 68.25726891 -181.30044786 68.25726891 -177.59863567 68.25726891 C-177.26863567 67.26726891 -176.93863567 66.27726891 -176.59863567 65.25726891 C-174.65722942 63.78461266 -174.65722942 63.78461266 -172.03613567 62.19476891 C-171.05644817 61.59406578 -170.07676067 60.99336266 -169.06738567 60.37445641 C-168.52082317 60.04284508 -167.97426067 59.71123375 -167.41113567 59.36957359 C-165.38655736 58.12711955 -163.3827738 56.85469374 -161.37988567 55.57758141 C-159.93199821 54.65826458 -158.48408169 53.73899351 -157.03613567 52.81976891 C-156.33351604 52.37045006 -155.63089642 51.92113121 -154.90698528 51.45819664 C-149.82483776 48.25726891 -149.82483776 48.25726891 -147.59863567 48.25726891 C-147.59863567 47.59726891 -147.59863567 46.93726891 -147.59863567 46.25726891 C-146.58801067 45.76226891 -145.57738567 45.26726891 -144.53613567 44.75726891 C-140.39061433 42.68818987 -136.30631981 40.50934491 -132.22363567 38.31976891 C-118.3595888 30.89670215 -104.26904798 24.87952336 -89.59863567 19.25726891 C-88.53258099 18.84863609 -87.4665263 18.44000328 -86.36816692 18.01898766 C-81.04553478 16.0297211 -75.70783537 14.3836894 -70.20410442 12.96820641 C-68.35497461 12.46364625 -66.52456837 11.88810369 -64.71191692 11.26508141 C-60.22666397 9.81314256 -55.6526191 8.96991468 -51.03613567 8.03851891 C-47.66503452 7.34232973 -47.66503452 7.34232973 -44.77051067 6.25726891 C-40.51796817 4.91656585 -36.25806815 4.35975893 -31.84863567 3.75726891 C-30.14515329 3.52024001 -28.44202461 3.28065506 -26.73926067 3.03851891 C-25.99192669 2.93603844 -25.2445927 2.83355797 -24.47461224 2.72797203 C-22.82120118 2.45736282 -21.17073808 2.15875149 -19.53804312 1.78284641 C-12.96074189 0.30236887 -6.72579443 -0.02661316 0 0 Z " fill="#1410D9" transform="translate(317.59863567352295,-0.25726890563964844)"/>
<path d="M0 0 C4.12891608 0.81963853 8.01287925 1.93641319 12.00439453 3.25292969 C12.78130142 3.50456375 13.55820831 3.75619781 14.35865784 4.01545715 C16.90677159 4.8434197 19.45175333 5.68055424 21.99658203 6.51855469 C23.79320836 7.10572675 25.58983929 7.69288473 27.38647461 8.2800293 C39.92939599 12.39546294 52.39354697 16.71409838 64.83010864 21.13909912 C78.18121637 25.88658168 91.61969576 30.31481429 105.11132812 34.64477539 C116.09705682 38.17281943 127.0174381 41.85168445 137.87158203 45.76855469 C138.82350489 50.09645074 138.85687947 52.95196885 137.50048828 57.16308594 C137.17733643 58.18877686 136.85418457 59.21446777 136.52124023 60.27124023 C136.16247803 61.363479 135.80371582 62.45571777 135.43408203 63.58105469 C135.07080811 64.7216333 134.70753418 65.86221191 134.33325195 67.03735352 C133.57112821 69.42516615 132.80320634 71.81113519 132.02978516 74.1953125 C130.91661073 77.62963394 129.82062155 81.06889831 128.73095703 84.51074219 C126.09712803 92.81239828 123.43582516 101.10149827 120.65283203 109.35449219 C116.38444233 122.07260267 112.46571037 134.9070465 108.46362305 147.71069336 C103.69050033 162.97292697 98.77777167 178.17762814 93.68539429 193.33627319 C92.05937804 198.19602948 90.48788072 203.07281518 88.93408203 207.95605469 C88.61036621 208.96974121 88.28665039 209.98342773 87.953125 211.02783203 C85.42483537 218.96991988 82.95694594 226.9302108 80.49658203 234.89355469 C77.08638312 245.92766633 73.5842388 256.92885292 70.02441406 267.91552734 C66.43460029 278.99879439 62.88883226 290.09586593 59.35101318 301.1958313 C49.95176851 330.68364051 49.95176851 330.68364051 45.75317383 343.74072266 C45.14357777 345.63761028 44.53586485 347.53510277 43.92822266 349.43261719 C43.22428703 351.61793239 42.50963841 353.79984558 41.78100586 355.97705078 C41.22010064 357.69876628 40.7001736 359.43522521 40.24926758 361.18896484 C39.42968025 364.0760187 38.55054815 366.25616487 36.1171875 368.0925293 C33.85022475 369.30958773 31.5692018 370.30390833 29.18408203 371.26855469 C27.44503875 372.02983712 25.70676722 372.79288476 23.96923828 373.55761719 C22.67010498 374.11497559 22.67010498 374.11497559 21.34472656 374.68359375 C17.86868657 376.20852186 14.4981154 377.91205567 11.12158203 379.64355469 C3.85447783 383.31569318 -3.48226266 386.83542886 -10.83496094 390.33251953 C-16.33229103 392.94819193 -21.81772167 395.58623669 -27.28857422 398.25683594 C-28.5016377 398.84723308 -29.71477217 399.43748437 -30.92797852 400.02758789 C-33.25580242 401.1610609 -35.58160001 402.29870793 -37.9050293 403.44116211 C-43.89504448 406.35126724 -49.75308734 408.83582288 -56.12841797 410.76855469 C-58.85252556 407.5190939 -61.02290132 404.36330173 -62.94091797 400.58496094 C-63.45235352 399.58722656 -63.96378906 398.58949219 -64.49072266 397.56152344 C-65.30138184 395.96244141 -65.30138184 395.96244141 -66.12841797 394.33105469 C-70.27422488 386.24894262 -74.48262174 378.21742973 -78.87841797 370.26855469 C-84.16828901 360.66559934 -89.2287677 350.94948394 -94.25341797 341.20605469 C-94.63139526 340.47483398 -95.00937256 339.74361328 -95.39880371 338.99023438 C-96.48069057 336.89560513 -97.55910867 334.79923132 -98.63623047 332.70214844 C-98.95965424 332.07598129 -99.283078 331.44981415 -99.61630249 330.80467224 C-100.47075603 329.13459618 -101.30056449 327.45197487 -102.12841797 325.76855469 C-102.53044434 325.00679932 -102.9324707 324.24504395 -103.34667969 323.46020508 C-105.55137958 315.86906945 -103.92167672 308.64551227 -101.51123047 301.33105469 C-101.10470749 300.04026001 -101.10470749 300.04026001 -100.68997192 298.72338867 C-99.84974049 296.06719859 -98.99015289 293.41783495 -98.12841797 290.76855469 C-97.62047452 289.17515731 -97.11360102 287.58141838 -96.60791016 285.98730469 C-95.09582635 281.24023165 -93.55161801 276.50394886 -92.00341797 271.76855469 C-91.43490212 270.02346196 -90.8664631 268.27834421 -90.2980957 266.53320312 C-86.88532492 256.06912091 -83.41832002 245.62405581 -79.91842651 235.18884277 C-70.93405566 208.38685788 -61.95313014 181.54368858 -54.50341797 154.26855469 C-50.40359792 139.28438286 -45.52091773 124.61759621 -40.53317261 109.90959167 C-35.99604834 96.50246382 -31.6768651 83.02232172 -27.32524109 69.55412292 C-25.80927476 64.86380697 -24.28078107 60.17789784 -22.74169922 55.49511719 C-19.17780642 44.59631219 -15.90472401 33.69847211 -13.20483398 22.54956055 C-7.50259056 -0.55505352 -7.50259056 -0.55505352 0 0 Z " fill="#709177" transform="translate(801.12841796875,371.2314453125)"/>
<path d="M0 0 C6.56543217 0.56505179 12.28186301 2.22792513 18.48828125 4.39453125 C19.99510971 4.91007568 19.99510971 4.91007568 21.53237915 5.43603516 C24.7949826 6.55421574 28.05372148 7.68322622 31.3125 8.8125 C33.56494295 9.58688764 35.81763039 10.36056448 38.07055664 11.13354492 C42.58586789 12.68397103 47.09971104 14.23855729 51.61230469 15.796875 C57.30281627 17.76127661 62.99775998 19.71237751 68.6953125 21.65625 C85.04836757 27.23974212 85.04836757 27.23974212 89.62060547 28.83837891 C91.84777646 29.60393877 94.08665924 30.33635069 96.33642578 31.03271484 C97.34044434 31.35578613 98.34446289 31.67885742 99.37890625 32.01171875 C100.25232666 32.27815186 101.12574707 32.54458496 102.02563477 32.8190918 C104 34 104 34 104.70579529 36.26850891 C105.03100354 39.28784685 104.65022855 41.02304759 103.68164062 43.88476562 C103.36658569 44.83887329 103.05153076 45.79298096 102.72692871 46.77600098 C102.37360474 47.80898315 102.02028076 48.84196533 101.65625 49.90625 C100.9061408 52.17140814 100.15750676 54.43705518 99.41015625 56.703125 C99.01393066 57.89550781 98.61770508 59.08789062 98.20947266 60.31640625 C96.18223748 66.49059365 94.26546847 72.69857263 92.34375 78.90625 C91.9441994 80.19252291 91.5444586 81.47873676 91.14453125 82.76489258 C89.92844392 86.67620937 88.71406833 90.58805611 87.5 94.5 C82.05855129 112.03331471 76.57373472 129.55076344 70.9543457 147.02807617 C69.36915579 151.96450924 67.79406905 156.90415984 66.21875 161.84375 C65.60214222 163.77645178 64.9855244 165.70915035 64.36889648 167.6418457 C64.0631369 168.60031403 63.75737732 169.55878235 63.44235229 170.54629517 C61.81754077 175.63909716 60.19189308 180.73163227 58.56640625 185.82421875 C56.53093928 192.20131029 54.49663915 198.57876899 52.46484375 204.95703125 C48.73102176 216.66820174 44.92723889 228.35216647 41 240 C18.95820498 237.55365728 -2.15565958 229.20752206 -23 222 C-23.88586792 221.69461304 -24.77173584 221.38922607 -25.68444824 221.07458496 C-31.14711359 219.19019504 -36.60350611 217.28903846 -42.05258179 215.36569214 C-43.80491232 214.74840565 -45.5585147 214.13471749 -47.31338501 213.52468872 C-49.75879637 212.67261082 -52.19827835 211.80538736 -54.63671875 210.93359375 C-55.73716019 210.55459427 -55.73716019 210.55459427 -56.85983276 210.16793823 C-58.60773785 209.53331448 -60.31042065 208.77668598 -62 208 C-63.07492528 204.77522417 -62.95462994 203.876616 -62.20703125 200.6796875 C-61.99554443 199.77387939 -61.78405762 198.86807129 -61.56616211 197.93481445 C-61.31745361 196.92507568 -61.06874512 195.91533691 -60.8125 194.875 C-60.54767822 193.7924292 -60.28285645 192.7098584 -60.01000977 191.59448242 C-53.31623538 164.9090745 -45.09778207 138.68171572 -36.04948425 112.71121216 C-35.64600517 111.55285355 -35.64600517 111.55285355 -35.234375 110.37109375 C-34.96615433 109.6011911 -34.69793365 108.83128845 -34.42158508 108.03805542 C-30.86610683 97.79003432 -27.56616943 87.45897424 -24.24487305 77.13330078 C-23.75581105 75.61356994 -23.26663629 74.09387538 -22.77734375 72.57421875 C-22.54033249 71.8379425 -22.30332123 71.10166626 -22.05912781 70.34307861 C-20.2299155 64.67615533 -18.33442674 59.03315336 -16.42114258 53.39404297 C-11.45619304 38.75394731 -7.10997147 23.97246213 -2.91040039 9.09838867 C-2.01133257 6.03856841 -1.02746405 3.0188669 0 0 Z " fill="#1410D9" transform="translate(785,468)"/>
<path d="M0 0 C0.65274902 0.32983887 1.30549805 0.65967773 1.97802734 0.99951172 C11.46467963 5.86891018 19.87781167 11.71133632 28.31640625 18.203125 C33.01455978 21.80540438 37.87790173 25.03055704 43 28 C43.91652344 28.53238281 44.83304688 29.06476562 45.77734375 29.61328125 C61.77897647 38.26919801 78.56843856 40.36880427 96.125 35.3359375 C104.61291425 32.61426934 111.93085509 27.30185868 119 22 C123.41607356 24.20803678 125.68332137 26.63395181 128 31 C127.80103052 33.76899198 127.15838485 34.83246403 125.2421875 36.859375 C108.76586316 50.01868355 90.27324445 57.29262995 69 55 C50.58273306 52.24513388 34.60640727 42.80907844 19.6875 32.125 C-3.41695636 15.58501229 -29.77116133 0.96541565 -59.16503906 5.32080078 C-80.32951955 9.38481558 -98.06930606 19.75896548 -115.48828125 31.8828125 C-138.47915247 47.857645 -162.55523729 58.77251489 -191.12207031 54.1796875 C-211.19981377 50.49893102 -227.09885669 40.79406602 -243.69042969 29.55517578 C-253.2273273 23.13339589 -262.87581733 16.92107114 -272.875 11.2421875 C-275 10 -275 10 -276 9 C-276.44690265 -0.08702065 -276.44690265 -0.08702065 -274 -3 C-267.65213498 -5.05306823 -262.67931839 -1.75695067 -257 1 C-249.46972655 4.89205144 -242.58149194 9.62141426 -235.625 14.4375 C-212.55460614 30.38854994 -189.50696405 41.32766349 -160.734375 36.3828125 C-146.60267186 32.98519025 -134.41005225 25.78558021 -123 17 C-85.28720503 -10.6792152 -43.37460309 -22.14521201 0 0 Z " fill="#709177" transform="translate(614,853)"/>
<path d="M0 0 C1.03640625 0.06832031 2.0728125 0.13664063 3.140625 0.20703125 C32.26273712 3.07511805 57.9692101 19.19565758 80.875 36.375 C86.26480888 40.34124104 91.88588262 43.30212575 98 46 C98.86367188 46.41507813 99.72734375 46.83015625 100.6171875 47.2578125 C112.76424763 52.2926809 130.34369978 52.26986986 142.5 47.26953125 C149.42372449 43.75357741 155.76185664 39.61080162 162 35 C165.98288141 37.1020763 168.45559972 39.27427102 171 43 C171.37314312 44.32274453 171.71456443 45.65559849 172 47 C152.86670425 62.07147878 132.72463487 69.4460406 108.359375 66.5703125 C91.22558865 63.40173557 77.05761498 54.60919396 63.359375 44.265625 C49.62734469 33.90573171 34.52790809 24.43992936 17.8125 19.8125 C16.08966797 19.32716797 16.08966797 19.32716797 14.33203125 18.83203125 C-4.601878 14.10410315 -23.64597431 17.58460563 -41 26 C-41.87881836 26.41813965 -41.87881836 26.41813965 -42.77539062 26.84472656 C-52.33989236 31.44967462 -61.10384377 36.97039165 -69.875 42.9375 C-94.34579559 59.56913278 -118.50055939 71.22819304 -148.6875 65.875 C-167.22925429 61.61886937 -183.83017053 51.87803487 -199.67138672 41.66699219 C-203.89112378 38.94820067 -208.13611823 36.30667186 -212.47265625 33.77734375 C-213.3752417 33.24923096 -214.27782715 32.72111816 -215.20776367 32.17700195 C-216.93820116 31.17010116 -218.67378958 30.17198152 -220.4152832 29.18432617 C-225.30910228 26.32663985 -228.76916459 23.69470694 -232 19 C-232.53864905 15.15250678 -232.35186067 12.1750119 -230 9 C-227.07691658 7.59467143 -225.80228485 8.06428063 -222.671875 9.08203125 C-221.35751171 9.64255362 -220.05054232 10.22061669 -218.75 10.8125 C-218.04762207 11.12727295 -217.34524414 11.4420459 -216.62158203 11.76635742 C-205.22836582 17.04165256 -195.00970926 24.19314928 -184.86450195 31.52172852 C-175.42242026 38.32635722 -165.89492497 43.02862413 -155 47 C-154.13117188 47.34417969 -153.26234375 47.68835938 -152.3671875 48.04296875 C-135.51239282 53.81478751 -116.24138687 50.38533067 -100.55859375 42.9453125 C-93.20478043 39.28331821 -86.44772462 35.10943253 -79.890625 30.15234375 C-57.30878378 13.33802684 -29.04657409 -2.13577751 0 0 Z " fill="#709177" transform="translate(570,773)"/>
<path d="M0 0 C2.43055519 0.32280811 4.63394865 0.77161986 7 1.375 C7.74564209 1.55925537 8.49128418 1.74351074 9.25952148 1.93334961 C36.8176942 8.95264851 63.74251719 18.8164566 90.4375 28.5625 C91.59306396 28.97999512 92.74862793 29.39749023 93.93920898 29.82763672 C94.98923096 30.21580566 96.03925293 30.60397461 97.12109375 31.00390625 C98.0433374 31.34236572 98.96558105 31.6808252 99.91577148 32.02954102 C102 33 102 33 103 35 C103.13105628 50.38600671 97.10811354 64.8623763 91.8046875 79.03125 C90.33764229 82.98341275 89.08530286 86.92731711 88 91 C85.97805594 90.58875714 83.95752682 90.17055929 81.9375 89.75 C80.81214844 89.51796875 79.68679688 89.2859375 78.52734375 89.046875 C66.02143832 86.2482045 53.88273331 82.4601283 41.75 78.375 C40.97496124 78.11565674 40.19992249 77.85631348 39.40139771 77.58911133 C25.77828715 73.02766728 12.28633065 68.17041884 -1.14501953 63.0703125 C-5.05218139 61.60554445 -8.9821416 60.20639078 -12.91577148 58.81445312 C-15 58 -15 58 -16 57 C-16.422848 47.16418773 -13.05441997 38.33181591 -9.80078125 29.23974609 C-5.30824603 16.77175778 -5.30824603 16.77175778 -2.45703125 3.85546875 C-2 2 -2 2 0 0 Z " fill="#1410D9" transform="translate(810,393)"/>
<path d="M0 0 C5.59000419 0.45403567 10.36437925 2.05502763 15.5703125 4.06640625 C17.26308894 4.70527233 18.95613354 5.34342821 20.64941406 5.98095703 C21.52714478 6.31347473 22.40487549 6.64599243 23.3092041 6.98858643 C27.77246512 8.66623235 32.2576772 10.28255444 36.7421875 11.90234375 C38.58990394 12.5720996 40.43755973 13.24202279 42.28515625 13.91210938 C45.07670677 14.92386956 47.86843589 15.93512576 50.66064453 16.94506836 C56.17689146 18.94089396 61.68896932 20.94755426 67.19519043 22.97088623 C69.12260211 23.6780736 71.05113402 24.38221294 72.98059082 25.08380127 C75.91012317 26.15133869 78.83441049 27.23221057 81.7578125 28.31640625 C82.65716522 28.6416478 83.55651794 28.96688934 84.48312378 29.30198669 C85.30998688 29.611689 86.13684998 29.9213913 86.98876953 30.24047852 C87.71726105 30.50860855 88.44575256 30.77673859 89.19631958 31.05299377 C91 32 91 32 93 35 C89.59862922 37.78758959 85.87133295 39.65713264 81.9375 41.5625 C75.8484208 44.55971515 69.81307026 47.64184377 63.8125 50.8125 C63.03293945 51.22161621 62.25337891 51.63073242 61.45019531 52.05224609 C57.05408938 54.36425239 52.68529574 56.71830703 48.3359375 59.1171875 C46.92284302 59.88518677 46.92284302 59.88518677 45.48120117 60.66870117 C43.65636404 61.66077596 41.83840877 62.66564494 40.02856445 63.68481445 C36.41963673 65.63228413 33.76410232 66.94491355 29.640625 67.2421875 C25.82150773 65.4456205 24.68316349 62.63077578 23.0625 58.9375 C22.72605469 58.21651123 22.38960937 57.49552246 22.04296875 56.75268555 C21.00561276 54.51149937 20.0015642 52.2573678 19 50 C18.40609911 48.70520052 17.81109884 47.41090457 17.21484375 46.1171875 C13.40380935 37.72988975 10.09862779 29.16438044 6.85742188 20.54345703 C4.38288801 13.96300281 1.78107282 7.45797198 -1 1 C-0.67 0.67 -0.34 0.34 0 0 Z " fill="#1410D9" transform="translate(722,692)"/>
<path d="M0 0 C2 1 2 1 2 1 Z " fill="#709177" transform="translate(985,1276)"/>
<path d="M0 0 C2 1 2 1 2 1 Z " fill="#709177" transform="translate(293,1276)"/>
<path d="M0 0 C2 1 2 1 2 1 Z " fill="#709177" transform="translate(1011,1271)"/>
<path d="M0 0 C2 1 2 1 2 1 Z " fill="#709177" transform="translate(267,1271)"/>
<path d="" fill="#709177" transform="translate(0,0)"/>
<path d="" fill="#709177" transform="translate(0,0)"/>
<path d="" fill="#709177" transform="translate(0,0)"/>
<path d="" fill="#709177" transform="translate(0,0)"/>
<path d="" fill="#709177" transform="translate(0,0)"/>
<path d="" fill="#709177" transform="translate(0,0)"/>
<path d="" fill="#709177" transform="translate(0,0)"/>
<path d="" fill="#709177" transform="translate(0,0)"/>
</svg>
